<?xml version="1.0" encoding="utf-8"?>
<!-- Generator: Adobe Illustrator 25.0.0, SVG Export Plug-In . SVG Version: 6.00 Build 0)  -->
<svg version="1.1" xmlns="http://www.w3.org/2000/svg" xmlns:xlink="http://www.w3.org/1999/xlink" x="0px" y="0px"
	 viewBox="0 0 343.74 115.35" style="enable-background:new 0 0 343.74 115.35;" xml:space="preserve">
<style type="text/css">
	.st0{fill:#D06F3E;}
	.st1{fill:#5BBA47;}
</style>
<g id="Layer_1">
	<g>
		<path class="st0" d="M40.78,47.17c2,0,3.88,0.22,5.65,0.65c1.77,0.43,3.32,0.98,4.65,1.65v-19c0.47-0.13,1.13-0.3,2-0.5
			c0.87-0.2,1.8-0.3,2.8-0.3c1.93,0,3.37,0.37,4.3,1.1c0.93,0.73,1.4,1.97,1.4,3.7v52.4c0,1.4-0.3,2.55-0.9,3.45
			c-0.6,0.9-1.53,1.75-2.8,2.55c-1.53,1-3.62,1.9-6.25,2.7c-2.63,0.8-5.65,1.2-9.05,1.2c-3.8,0-7.27-0.48-10.4-1.45
			c-3.13-0.97-5.8-2.47-8-4.5c-2.2-2.03-3.9-4.6-5.1-7.7c-1.2-3.1-1.8-6.75-1.8-10.95c0-4.33,0.62-8.08,1.85-11.25
			c1.23-3.17,2.92-5.77,5.05-7.8c2.13-2.03,4.62-3.53,7.45-4.5C34.47,47.66,37.52,47.17,40.78,47.17z M51.18,58.27
			c-1.13-0.73-2.47-1.37-4-1.9c-1.53-0.53-3.23-0.8-5.1-0.8c-2,0-3.85,0.3-5.55,0.9c-1.7,0.6-3.18,1.58-4.45,2.95
			c-1.27,1.37-2.27,3.1-3,5.2c-0.73,2.1-1.1,4.65-1.1,7.65c0,5.6,1.32,9.67,3.95,12.2c2.63,2.53,6.15,3.8,10.55,3.8
			c2,0,3.68-0.21,5.05-0.65c1.37-0.43,2.58-0.95,3.65-1.55V58.27z"/>
		<path class="st0" d="M87.98,47.17c6.2,0,11.13,1.35,14.8,4.05c3.67,2.7,5.5,6.95,5.5,12.75v23.3c0,1.54-0.35,2.72-1.05,3.55
			c-0.7,0.83-1.65,1.62-2.85,2.35c-1.73,1-3.97,1.87-6.7,2.6c-2.73,0.73-5.9,1.1-9.5,1.1c-6.47,0-11.52-1.27-15.15-3.8
			c-3.63-2.53-5.45-6.27-5.45-11.2c0-4.4,1.42-7.77,4.25-10.1c2.83-2.33,6.92-3.77,12.25-4.3l13.9-1.4v-2.2
			c0-2.93-0.95-5.07-2.85-6.4c-1.9-1.33-4.55-2-7.95-2c-2.67,0-5.23,0.37-7.7,1.1c-2.47,0.73-4.67,1.57-6.6,2.5
			c-0.67-0.53-1.23-1.18-1.7-1.95c-0.47-0.77-0.7-1.62-0.7-2.55c0-1.13,0.28-2.07,0.85-2.8c0.57-0.73,1.45-1.37,2.65-1.9
			c1.87-0.93,4-1.62,6.4-2.05C82.78,47.39,85.32,47.17,87.98,47.17z M88.18,88.67c2.33,0,4.37-0.23,6.1-0.7
			c1.73-0.47,2.97-0.97,3.7-1.5v-12.7l-10.9,1.1c-3.07,0.33-5.37,1.02-6.9,2.05c-1.53,1.03-2.3,2.62-2.3,4.75
			c0,2.2,0.83,3.92,2.5,5.15C82.05,88.06,84.65,88.67,88.18,88.67z"/>
		<path class="st0" d="M129.28,86.77c1.4,1,3.37,1.5,5.9,1.5c1.13,0,2.33-0.17,3.6-0.5c1.27-0.33,2.37-0.73,3.3-1.2
			c0.47,0.53,0.88,1.13,1.25,1.8c0.37,0.67,0.55,1.47,0.55,2.4c0,1.73-0.88,3.17-2.65,4.3c-1.77,1.13-4.45,1.7-8.05,1.7
			c-5,0-8.98-1.12-11.95-3.35c-2.97-2.23-4.45-5.92-4.45-11.05v-46.7c0.47-0.13,1.13-0.3,2-0.5c0.87-0.2,1.8-0.3,2.8-0.3
			c1.93,0,3.35,0.37,4.25,1.1c0.9,0.73,1.35,1.97,1.35,3.7v9.9h15.5c0.27,0.4,0.52,0.97,0.75,1.7c0.23,0.73,0.35,1.5,0.35,2.3
			c0,2.87-1.23,4.3-3.7,4.3h-12.9v23.8C127.18,84.07,127.88,85.77,129.28,86.77z"/>
		<path class="st0" d="M167.38,47.17c6.2,0,11.13,1.35,14.8,4.05c3.67,2.7,5.5,6.95,5.5,12.75v23.3c0,1.54-0.35,2.72-1.05,3.55
			c-0.7,0.83-1.65,1.62-2.85,2.35c-1.73,1-3.97,1.87-6.7,2.6c-2.73,0.73-5.9,1.1-9.5,1.1c-6.47,0-11.52-1.27-15.15-3.8
			c-3.63-2.53-5.45-6.27-5.45-11.2c0-4.4,1.42-7.77,4.25-10.1c2.83-2.33,6.92-3.77,12.25-4.3l13.9-1.4v-2.2
			c0-2.93-0.95-5.07-2.85-6.4c-1.9-1.33-4.55-2-7.95-2c-2.67,0-5.23,0.37-7.7,1.1c-2.47,0.73-4.67,1.57-6.6,2.5
			c-0.67-0.53-1.23-1.18-1.7-1.95c-0.47-0.77-0.7-1.62-0.7-2.55c0-1.13,0.28-2.07,0.85-2.8c0.57-0.73,1.45-1.37,2.65-1.9
			c1.87-0.93,4-1.62,6.4-2.05C162.18,47.39,164.72,47.17,167.38,47.17z M167.58,88.67c2.33,0,4.37-0.23,6.1-0.7
			c1.73-0.47,2.96-0.97,3.7-1.5v-12.7l-10.9,1.1c-3.07,0.33-5.37,1.02-6.9,2.05c-1.53,1.03-2.3,2.62-2.3,4.75
			c0,2.2,0.83,3.92,2.5,5.15C161.45,88.06,164.05,88.67,167.58,88.67z"/>
		<path class="st0" d="M213.48,47.17c6.2,0,11.13,1.35,14.8,4.05c3.67,2.7,5.5,6.95,5.5,12.75v23.3c0,1.54-0.35,2.72-1.05,3.55
			c-0.7,0.83-1.65,1.62-2.85,2.35c-1.73,1-3.97,1.87-6.7,2.6c-2.73,0.73-5.9,1.1-9.5,1.1c-6.47,0-11.52-1.27-15.15-3.8
			c-3.63-2.53-5.45-6.27-5.45-11.2c0-4.4,1.42-7.77,4.25-10.1c2.83-2.33,6.92-3.77,12.25-4.3l13.9-1.4v-2.2
			c0-2.93-0.95-5.07-2.85-6.4c-1.9-1.33-4.55-2-7.95-2c-2.67,0-5.23,0.37-7.7,1.1c-2.47,0.73-4.67,1.57-6.6,2.5
			c-0.67-0.53-1.23-1.18-1.7-1.95c-0.47-0.77-0.7-1.62-0.7-2.55c0-1.13,0.28-2.07,0.85-2.8c0.57-0.73,1.45-1.37,2.65-1.9
			c1.87-0.93,4-1.62,6.4-2.05C208.28,47.39,210.81,47.17,213.48,47.17z M213.68,88.67c2.33,0,4.37-0.23,6.1-0.7
			c1.73-0.47,2.96-0.97,3.7-1.5v-12.7l-10.9,1.1c-3.07,0.33-5.37,1.02-6.9,2.05c-1.53,1.03-2.3,2.62-2.3,4.75
			c0,2.2,0.83,3.92,2.5,5.15C207.55,88.06,210.15,88.67,213.68,88.67z"/>
		<path class="st0" d="M254.78,86.77c1.4,1,3.37,1.5,5.9,1.5c1.13,0,2.33-0.17,3.6-0.5c1.27-0.33,2.37-0.73,3.3-1.2
			c0.47,0.53,0.88,1.13,1.25,1.8c0.37,0.67,0.55,1.47,0.55,2.4c0,1.73-0.88,3.17-2.65,4.3c-1.77,1.13-4.45,1.7-8.05,1.7
			c-5,0-8.98-1.12-11.95-3.35c-2.97-2.23-4.45-5.92-4.45-11.05v-46.7c0.47-0.13,1.13-0.3,2-0.5c0.87-0.2,1.8-0.3,2.8-0.3
			c1.93,0,3.35,0.37,4.25,1.1c0.9,0.73,1.35,1.97,1.35,3.7v9.9h15.5c0.27,0.4,0.52,0.97,0.75,1.7c0.23,0.73,0.35,1.5,0.35,2.3
			c0,2.87-1.23,4.3-3.7,4.3h-12.9v23.8C252.68,84.07,253.38,85.77,254.78,86.77z"/>
		<path class="st0" d="M286.98,86.77c1.4,1,3.37,1.5,5.9,1.5c1.13,0,2.33-0.17,3.6-0.5c1.27-0.33,2.37-0.73,3.3-1.2
			c0.47,0.53,0.88,1.13,1.25,1.8c0.37,0.67,0.55,1.47,0.55,2.4c0,1.73-0.88,3.17-2.65,4.3c-1.77,1.13-4.45,1.7-8.05,1.7
			c-5,0-8.98-1.12-11.95-3.35c-2.97-2.23-4.45-5.92-4.45-11.05v-46.7c0.47-0.13,1.13-0.3,2-0.5c0.87-0.2,1.8-0.3,2.8-0.3
			c1.93,0,3.35,0.37,4.25,1.1c0.9,0.73,1.35,1.97,1.35,3.7v9.9h15.5c0.27,0.4,0.52,0.97,0.75,1.7c0.23,0.73,0.35,1.5,0.35,2.3
			c0,2.87-1.23,4.3-3.7,4.3h-12.9v23.8C284.88,84.07,285.58,85.77,286.98,86.77z"/>
		<path class="st0" d="M318.18,95.17c-0.47,0.2-1.12,0.38-1.95,0.55c-0.83,0.17-1.78,0.25-2.85,0.25c-1.93,0-3.37-0.37-4.3-1.1
			c-0.93-0.73-1.4-1.97-1.4-3.7v-42.3c0.53-0.13,1.22-0.3,2.05-0.5c0.83-0.2,1.78-0.3,2.85-0.3c1.93,0,3.35,0.37,4.25,1.1
			c0.9,0.73,1.35,2,1.35,3.8V95.17z"/>
	</g>
	<g>
		<path class="st1" d="M51.19,30.59c0,0-10.86-13.42-20.75-5.7"/>
		<path class="st1" d="M30.43,24.87c0,0,10.86,13.42,20.75,5.7"/>
	</g>
</g>
<g id="Layer_2">
</g>
</svg>
