<?xml version="1.0" encoding="utf-8"?>
<svg version="1.1" x="0px" y="0px" viewBox="0 0 262.06 396" style="enable-background:new 0 0 262.06 396;" xmlns="http://www.w3.org/2000/svg">
  <style type="text/css">
	.st0{fill:#D06F3E;}
	.st1{fill:#5BBA47;}
</style>
  <g id="Layer_1">
    <g>
      <path class="st0" d="M137.15,133.2c10,0,19.41,1.09,28.25,3.25c8.83,2.17,16.58,4.92,23.25,8.25v-95c2.33-0.66,5.66-1.5,10-2.5 c4.33-1,9-1.5,14-1.5c9.66,0,16.83,1.84,21.5,5.5c4.67,3.67,7,9.84,7,18.5v262c0,7-1.5,12.75-4.5,17.25c-3,4.5-7.67,8.75-14,12.75 c-7.67,5-18.09,9.5-31.25,13.5c-13.17,4-28.25,6-45.25,6c-19,0-36.34-2.42-52-7.25c-15.67-4.83-29-12.33-40-22.5 c-11-10.17-19.5-23-25.5-38.5c-6-15.5-9-33.75-9-54.75c0-21.66,3.08-40.41,9.25-56.25c6.16-15.83,14.58-28.83,25.25-39 c10.66-10.16,23.08-17.66,37.25-22.5C105.57,135.62,120.82,133.2,137.15,133.2z M189.15,188.7c-5.67-3.66-12.33-6.83-20-9.5 c-7.67-2.66-16.17-4-25.5-4c-10,0-19.25,1.5-27.75,4.5c-8.5,3-15.92,7.92-22.25,14.75c-6.34,6.84-11.34,15.5-15,26 c-3.67,10.5-5.5,23.25-5.5,38.25c0,28,6.58,48.34,19.75,61c13.16,12.67,30.75,19,52.75,19c10,0,18.41-1.07,25.25-3.25 c6.83-2.16,12.92-4.75,18.25-7.75V188.7z"/>
    </g>
    <g>
      <path class="st1" d="M 85.39 21.77 C 85.405 21.758 85.42 21.747 85.435 21.735 C 85.405 21.699 85.39 21.68 85.39 21.68 L 85.475 21.703 C 133.721 -15.809 186.518 47.067 189.055 50.144 L 189.15 50.17 C 189.135 50.182 189.12 50.193 189.105 50.205 C 189.135 50.241 189.15 50.26 189.15 50.26 L 189.065 50.237 C 140.819 87.749 88.022 24.873 85.485 21.796 Z"/>
    </g>
  </g>
  <g id="Layer_2"/>
</svg>